<svg width="50" height="50" viewBox="0 0 50 50" fill="none" xmlns="http://www.w3.org/2000/svg">
<g id="Marca UFMG">
<path fill-rule="evenodd" clip-rule="evenodd" d="M48.8747 21.1587C47.8986 22.1662 44.482 25.3149 43.2619 25.3149C42.7738 25.3149 42.2857 25.063 42.2857 24.5592C42.2857 23.8035 42.8958 22.5441 43.1398 21.4106L48.2646 5.91939C48.6307 5.03778 48.9967 3.77834 48.9967 2.77078C48.9967 1.25945 48.3866 0 46.4343 0C40.3334 0 30.6939 11.0831 27.2774 15.6171H27.1554L30.2059 5.79345C30.5719 4.65995 30.938 3.27456 30.938 2.267C30.938 1.00756 30.0838 0.125945 28.0095 0.125945C22.2746 0 12.7572 10.9572 9.70671 15.4912H9.58469L12.8792 5.54156C13.1232 4.78589 13.6113 3.52645 13.6113 2.39295C13.6113 1.1335 13.0012 0.125945 11.415 0.125945C7.14432 0 2.75165 5.28967 0.311272 8.43828C0.311272 8.43828 -0.298821 9.19395 0.189254 9.69773C0.799347 10.2015 1.28742 9.69773 1.28742 9.69773L2.99568 7.55667C4.09385 6.42317 5.31404 5.28967 6.65624 5.28967C7.38836 5.28967 7.63239 5.91939 7.63239 6.54912C7.63239 7.17884 7.38836 7.80856 7.38836 8.1864L0.799347 29.0932C0.677328 29.8489 2.01953 30.2267 2.62963 30.2267C4.21587 30.2267 4.94798 29.7229 5.19202 29.2191L6.41221 25.6927C8.12047 20.6549 10.9269 16.1209 14.4654 12.2166C16.5398 9.94962 20.3223 5.28967 23.8609 5.28967C24.715 5.28967 25.0811 6.04534 25.0811 6.92695C25.0811 8.69017 24.2269 11.2091 23.9829 11.8388L18.248 29.0932C18.126 29.597 18.7361 30.3526 20.4444 30.3526C22.0306 30.3526 22.5187 29.7229 22.6407 29.2191L23.7389 26.5743C25.5691 21.7884 27.2774 18.3879 30.3279 14.4836C32.4022 11.8388 38.2591 5.16373 41.5536 5.16373C42.2857 5.16373 43.0178 5.6675 43.0178 6.801C43.0178 7.43073 42.6518 8.56423 42.2857 9.57179L37.0389 24.937C36.5508 26.3224 36.3068 27.33 36.3068 28.0856C36.3068 29.8489 37.527 30.3526 38.7472 30.3526C42.2857 30.3526 45.3362 27.33 47.7766 24.5592L49.7288 22.2922C49.7288 22.2922 50.3389 21.6625 49.7288 21.1587C49.3628 20.6549 48.8747 21.1587 48.8747 21.1587Z" fill="#E6E6E6"/>
<path d="M45.5806 38.9169H1.16581V50H45.5806V38.9169Z" fill="#E6E6E6"/>
</g>
</svg>
